<?xml version="1.0"?>
<svg xmlns="http://www.w3.org/2000/svg" xmlns:xlink="http://www.w3.org/1999/xlink" xmlns:svgjs="http://svgjs.com/svgjs" version="1.1" width="512" height="512" x="0" y="0" viewBox="0 0 24 24" style="enable-background:new 0 0 512 512" xml:space="preserve"><g><path xmlns="http://www.w3.org/2000/svg" d="M13,6H11A2,2,0,0,0,9,8V24h6V8A2,2,0,0,0,13,6Z" fill="#666666" data-original="#000000"/><path xmlns="http://www.w3.org/2000/svg" d="M22,0H20a2,2,0,0,0-2,2V24h6V2A2,2,0,0,0,22,0Z" fill="#666666" data-original="#000000"/><path xmlns="http://www.w3.org/2000/svg" d="M4,12H2a2,2,0,0,0-2,2V24H6V14A2,2,0,0,0,4,12Z" fill="#666666" data-original="#000000"/></g></svg>
